<svg width="41" height="41" viewBox="0 0 41 41" fill="none" xmlns="http://www.w3.org/2000/svg">
<path d="M19.2441 10.9043H21.7441V18.4043H19.2441V10.9043ZM19.2441 23.4043H21.7441V30.9043H19.2441V23.4043ZM22.9941 19.6543H30.4941V22.1543H22.9941V19.6543ZM10.4941 19.6543H17.9941V22.1543H10.4941V19.6543ZM5.49414 13.4043H2.99414V5.9043C2.9948 5.24146 3.25841 4.60596 3.7271 4.13726C4.1958 3.66856 4.8313 3.40496 5.49414 3.4043H12.9941V5.9043H5.49414V13.4043ZM12.9941 38.4043H5.49414C4.8313 38.4036 4.1958 38.14 3.7271 37.6713C3.25841 37.2026 2.9948 36.5671 2.99414 35.9043V28.4043H5.49414V35.9043H12.9941V38.4043ZM35.4941 38.4043H27.9941V35.9043H35.4941V28.4043H37.9941V35.9043C37.9935 36.5671 37.7299 37.2026 37.2612 37.6713C36.7925 38.14 36.157 38.4036 35.4941 38.4043ZM37.9941 13.4043H35.4941V5.9043H27.9941V3.4043H35.4941C36.157 3.40496 36.7925 3.66856 37.2612 4.13726C37.7299 4.60596 37.9935 5.24146 37.9941 5.9043V13.4043Z" fill="white"/>
</svg>
