<svg width="42" height="41" viewBox="0 0 42 41" fill="none" xmlns="http://www.w3.org/2000/svg">
<path d="M9.01812 11.9839C8.11381 11.9839 7.24653 12.3351 6.60708 12.9602C5.96764 13.5853 5.6084 14.4332 5.6084 15.3172V25.3172C5.6084 26.2013 5.96764 27.0491 6.60708 27.6742C7.24653 28.2994 8.11381 28.6506 9.01812 28.6506H14.1327V25.3172H9.01812V15.3172H14.1327V11.9839H9.01812ZM19.2473 11.9839C18.343 11.9839 17.4757 12.3351 16.8363 12.9602C16.1968 13.5853 15.8376 14.4332 15.8376 15.3172V25.3172C15.8376 26.2013 16.1968 27.0491 16.8363 27.6742C17.4757 28.2994 18.343 28.6506 19.2473 28.6506H22.657C23.5613 28.6506 24.4286 28.2994 25.068 27.6742C25.7075 27.0491 26.0667 26.2013 26.0667 25.3172V15.3172C26.0667 14.4332 25.7075 13.5853 25.068 12.9602C24.4286 12.3351 23.5613 11.9839 22.657 11.9839H19.2473ZM19.2473 15.3172H22.657V25.3172H19.2473V15.3172ZM27.7716 17.8172V20.3172H32.8862V22.8172H30.3289C29.6507 22.8172 29.0002 23.0806 28.5206 23.5495C28.041 24.0183 27.7716 24.6542 27.7716 25.3172V30.3172H35.4435V27.8172H30.3289V25.3172H32.8862C33.5644 25.3172 34.2149 25.0538 34.6945 24.585C35.174 24.1161 35.4435 23.4803 35.4435 22.8172V20.3172C35.4435 19.6542 35.174 19.0183 34.6945 18.5495C34.2149 18.0806 33.5644 17.8172 32.8862 17.8172H27.7716Z" fill="white"/>
</svg>
