<svg width="41" height="41" viewBox="0 0 41 41" fill="none" xmlns="http://www.w3.org/2000/svg">
<path d="M35.4941 20.9043V28.4043H5.49414V8.4043H14.2441V5.9043H5.49414C4.8311 5.9043 4.19521 6.16769 3.72637 6.63653C3.25753 7.10537 2.99414 7.74126 2.99414 8.4043V28.4043C2.99414 29.0673 3.25753 29.7032 3.72637 30.1721C4.19521 30.6409 4.8311 30.9043 5.49414 30.9043H15.4941V35.9043H10.4941V38.4043H30.4941V35.9043H25.4941V30.9043H35.4941C36.1572 30.9043 36.7931 30.6409 37.2619 30.1721C37.7307 29.7032 37.9941 29.0673 37.9941 28.4043V20.9043H35.4941ZM22.9941 35.9043H17.9941V30.9043H22.9941V35.9043Z" fill="white"/>
<path d="M22.9941 23.4044H22.9816C22.7123 23.4016 22.4511 23.3119 22.2369 23.1486C22.0227 22.9853 21.8669 22.7572 21.7929 22.4982L19.5516 14.6544H14.2441V12.1544H20.4941C20.7658 12.1543 21.0302 12.2427 21.2472 12.4062C21.4641 12.5697 21.6219 12.7995 21.6966 13.0607L23.0391 17.7607L26.8004 5.53569C26.8815 5.282 27.0406 5.06032 27.2548 4.90213C27.4691 4.74394 27.7278 4.65727 27.9941 4.65444C28.2575 4.65047 28.5151 4.73151 28.7288 4.88553C28.9425 5.03954 29.1009 5.25833 29.1804 5.50944L31.3941 12.1544H37.9941V14.6544H30.4941C30.2317 14.6545 29.9759 14.5719 29.763 14.4185C29.55 14.265 29.3908 14.0484 29.3079 13.7994L28.0416 9.99943L24.1891 22.5219C24.1105 22.7775 23.952 23.0011 23.737 23.16C23.5219 23.3188 23.2615 23.4045 22.9941 23.4044Z" fill="white"/>
</svg>
